<svg xmlns="http://www.w3.org/2000/svg" viewBox="0 0 940 440" width="940" height="440" font-family="Inter, 'Helvetica Neue', Arial, sans-serif">
<rect width="940" height="440" fill="#fff"/>
<defs><marker id="a" viewBox="0 0 10 10" refX="9" refY="5" markerWidth="6.5" markerHeight="6.5" orient="auto-start-reverse"><path d="M0 0L10 5L0 10z" fill="#12356B"/></marker></defs>
<rect x="8" y="170" width="130" height="100" rx="10" fill="#12356B"/>
<text x="73" y="216" font-size="21" font-weight="700" fill="#fff" text-anchor="middle">NABU PC</text>
<text x="73" y="242" font-size="14" fill="#C9D8F0" text-anchor="middle">Z80A · 64 KB</text>
<line x1="144" y1="220" x2="246" y2="220" stroke="#12356B" stroke-width="2.5" marker-start="url(#a)" marker-end="url(#a)"/>
<text x="195" y="203" font-size="14" fill="#5B6678" text-anchor="middle">cable RS-422</text>
<rect x="252" y="186" width="132" height="68" rx="8" fill="#fff" stroke="#12356B" stroke-width="1.5"/>
<text x="318" y="216" font-size="15" font-weight="600" fill="#1B2333" text-anchor="middle">Adaptador</text>
<text x="318" y="236" font-size="15" font-weight="600" fill="#1B2333" text-anchor="middle">USB a RS-422</text>
<line x1="390" y1="220" x2="442" y2="220" stroke="#12356B" stroke-width="2.5" marker-start="url(#a)" marker-end="url(#a)"/>
<text x="416" y="203" font-size="14" fill="#5B6678" text-anchor="middle">USB</text>
<rect x="448" y="14" width="304" height="414" rx="14" fill="#EAF1FB" stroke="#12356B" stroke-width="2"/>
<text x="464" y="48" font-size="18" font-weight="700" fill="#12356B">Raspberry Pi con NABU Setup</text>
<text x="464" y="72" font-size="14" fill="#5B6678">nabu.local · Wi-Fi o Ethernet</text>
<rect x="462" y="92" width="276" height="56" rx="8" fill="#fff" stroke="#9AA7BD"/><text x="474" y="115" font-size="16" font-weight="600" fill="#1B2333">Internet Adapter</text><text x="474" y="136" font-size="14" fill="#5B6678">servicio nabu-ia, dentro de tmux</text><rect x="462" y="158" width="276" height="56" rx="8" fill="#fff" stroke="#9AA7BD"/><text x="474" y="181" font-size="16" font-weight="600" fill="#1B2333">Comando nabu</text><text x="474" y="202" font-size="14" fill="#5B6678">administración por SSH</text><rect x="462" y="224" width="276" height="56" rx="8" fill="#fff" stroke="#9AA7BD"/><text x="474" y="247" font-size="16" font-weight="600" fill="#1B2333">Panel web</text><text x="474" y="268" font-size="14" fill="#5B6678">puerto 80, con contraseña</text><rect x="462" y="290" width="276" height="56" rx="8" fill="#fff" stroke="#9AA7BD"/><text x="474" y="313" font-size="16" font-weight="600" fill="#1B2333">Impresora virtual</text><text x="474" y="334" font-size="14" fill="#5B6678">LST.TXT → PDF en ~/nabu/printer</text><rect x="462" y="356" width="276" height="56" rx="8" fill="#fff" stroke="#9AA7BD"/><text x="474" y="379" font-size="16" font-weight="600" fill="#1B2333">Backups</text><text x="474" y="400" font-size="14" fill="#5B6678">archivos .zip en ~/nabu/backups</text>
<path d="M758 150 H 778 V 112 H 798" fill="none" stroke="#12356B" stroke-width="2.5" marker-start="url(#a)" marker-end="url(#a)"/>
<path d="M758 290 H 778 V 328 H 798" fill="none" stroke="#12356B" stroke-width="2.5" marker-start="url(#a)" marker-end="url(#a)"/>
<rect x="804" y="54" width="128" height="116" rx="10" fill="#fff" stroke="#12356B" stroke-width="1.5"/>
<text x="868" y="84" font-size="17" font-weight="700" fill="#1B2333" text-anchor="middle">Internet</text>
<text x="868" y="109" font-size="13.5" fill="#5B6678" text-anchor="middle">nabu.ca:</text>
<text x="868" y="128" font-size="13.5" fill="#5B6678" text-anchor="middle">canales, ciclos,</text>
<text x="868" y="147" font-size="13.5" fill="#5B6678" text-anchor="middle">Cloud CP/M</text>
<rect x="804" y="270" width="128" height="116" rx="10" fill="#fff" stroke="#12356B" stroke-width="1.5"/>
<text x="868" y="306" font-size="15" font-weight="700" fill="#1B2333" text-anchor="middle">Tu computadora</text>
<text x="868" y="326" font-size="15" font-weight="700" fill="#1B2333" text-anchor="middle">o teléfono</text>
<text x="868" y="354" font-size="13.5" fill="#5B6678" text-anchor="middle">SSH y navegador</text>
</svg>